Coordinates
version=1
nRows=50
nColumns=24
inDegrees=yes

Units are S.I. units (second, meters, Newtons, ...)
If the header above contains a line with 'inDegrees', this indicates whether rotational values are in degrees (yes) or radians (no).

endheader
time	pelvis_tilt	pelvis_list	pelvis_rotation	pelvis_tx	pelvis_ty	pelvis_tz	hip_flexion_r	hip_adduction_r	hip_rotation_r	knee_angle_r	ankle_angle_r	subtalar_angle_r	mtp_angle_r	hip_flexion_l	hip_adduction_l	hip_rotation_l	knee_angle_l	ankle_angle_l	subtalar_angle_l	mtp_angle_l	lumbar_extension	lumbar_bending	lumbar_rotation
2.525000	10.919445	1.136791	-179.710773	0.262600	0.789533	-1.217455	37.320015	-19.405400	-26.090853	-49.115215	16.305933	11.000254	0.000000	38.094422	-22.481274	-21.770588	-47.893562	14.901589	13.677712	0.000000	-3.271454	0.610405	3.194362
2.530000	10.907694	1.153834	-179.752601	0.261937	0.792049	-1.217316	36.820733	-19.181365	-26.239618	-48.212329	15.939227	11.059908	0.000000	37.579244	-22.322038	-21.957387	-47.045997	14.507499	13.553569	0.000000	-3.164466	0.631929	3.223738
2.535000	10.989756	1.176420	-179.822518	0.261246	0.794456	-1.217131	36.421029	-18.956815	-26.406822	-47.301121	15.505352	11.117764	0.000000	37.142618	-22.177859	-22.186527	-46.188652	14.114963	13.483519	0.000000	-2.937053	0.675141	3.276392
2.540000	10.894231	1.151779	-179.808496	0.260639	0.796939	-1.217096	35.844642	-18.794755	-26.576228	-46.434166	15.119678	11.088743	0.000000	36.553097	-21.954272	-22.340234	-45.328513	13.710267	13.378141	0.000000	-2.934973	0.634088	3.247181
2.545000	10.907588	1.156875	-179.832989	0.259978	0.799276	-1.216936	35.385337	-18.589706	-26.732508	-45.552618	14.667440	11.076422	0.000000	36.075078	-21.776250	-22.525494	-44.487391	13.315232	13.300168	0.000000	-2.800228	0.646668	3.248481
2.550000	11.001254	1.165442	-179.891151	0.259300	0.801503	-1.216696	35.026353	-18.390963	-26.902454	-44.686695	14.202835	11.100251	0.000000	35.664251	-21.607900	-22.741635	-43.634913	12.912195	13.235237	0.000000	-2.560771	0.688102	3.274369
2.555000	10.906498	1.189401	-179.917083	0.258649	0.803877	-1.216652	34.466130	-18.145359	-27.012475	-43.824155	13.830497	11.031848	0.000000	35.080234	-21.448314	-22.885777	-42.788571	12.523743	13.107422	0.000000	-2.559438	0.693682	3.298367
2.560000	10.974689	1.206778	-179.979954	0.257962	0.806086	-1.216413	34.078470	-17.915823	-27.133637	-42.936887	13.382805	11.034334	0.000000	34.650912	-21.280845	-23.065529	-41.948539	12.117616	12.988746	0.000000	-2.357213	0.745097	3.322625
2.565000	10.957530	1.219116	-179.978448	0.257285	0.808309	-1.216313	33.567284	-17.691673	-27.261484	-42.019176	12.966434	11.023713	0.000000	34.160825	-21.083543	-23.177890	-41.095252	11.743429	12.891099	0.000000	-2.260535	0.751199	3.277063
2.570000	10.896650	1.190517	-179.951761	0.256664	0.810458	-1.216279	33.035117	-17.517099	-27.380701	-41.142277	12.571046	10.979007	0.000000	33.629552	-20.851231	-23.316360	-40.255254	11.367475	12.830523	0.000000	-2.223313	0.691378	3.229402
2.575000	10.963395	1.226878	-179.994553	0.255969	0.812458	-1.216094	32.641401	-17.270159	-27.506867	-40.259609	12.122943	11.008765	0.000000	33.223088	-20.713954	-23.507299	-39.435651	10.984736	12.790301	0.000000	-2.017392	0.751736	3.244926
2.580000	10.925481	1.245372	-180.037314	0.255274	0.814557	-1.215933	32.156998	-17.020740	-27.567413	-39.392441	11.727311	10.891035	0.000000	32.699482	-20.540075	-23.650323	-38.600263	10.611882	12.662980	0.000000	-1.949752	0.781879	3.251084
2.585000	10.884688	1.246102	-180.019706	0.254661	0.816507	-1.215871	31.676667	-16.842270	-27.737929	-38.586906	11.334060	10.847834	0.000000	32.216961	-20.358917	-23.802981	-37.799376	10.160909	12.597033	0.000000	-1.890359	0.761054	3.203485
2.590000	10.878387	1.296365	-180.077353	0.253877	0.818472	-1.215640	31.203637	-16.548746	-27.767724	-37.684199	10.936962	10.790472	0.000000	31.728643	-20.217379	-23.930755	-36.975696	9.845905	12.485028	0.000000	-1.771763	0.841719	3.234219
2.595000	10.807965	1.287997	-180.044722	0.253290	0.820330	-1.215628	30.685044	-16.359204	-27.902184	-36.856189	10.548828	10.688094	0.000000	31.226988	-20.011786	-24.036188	-36.180658	9.468619	12.414883	0.000000	-1.755058	0.800546	3.166821
2.600000	10.781937	1.312686	-180.043371	0.252620	0.822155	-1.215566	30.205391	-16.114798	-27.976127	-35.997361	10.147751	10.599601	0.000000	30.760222	-19.840767	-24.140508	-35.385565	9.098089	12.296715	0.000000	-1.675336	0.809916	3.120897
2.605000	10.831122	1.337377	-180.099236	0.251866	0.823825	-1.215348	29.828145	-15.885876	-28.087352	-35.172834	9.738279	10.575060	0.000000	30.350276	-19.694267	-24.319776	-34.603027	8.748577	12.211017	0.000000	-1.492465	0.855197	3.140261
2.610000	10.773280	1.383767	-180.113984	0.251174	0.825606	-1.215233	29.333253	-15.624455	-28.167527	-34.346300	9.389498	10.421337	0.000000	29.856553	-19.544358	-24.397900	-33.820385	8.419648	12.064946	0.000000	-1.447411	0.897875	3.137413
2.615000	10.759584	1.402731	-180.119620	0.250507	0.827225	-1.215054	28.907085	-15.421689	-28.312004	-33.572706	9.003540	10.275259	0.000000	29.417939	-19.369340	-24.501151	-33.060174	8.109362	11.967160	0.000000	-1.354368	0.919983	3.106230
2.620000	10.729225	1.438592	-180.111669	0.249853	0.828796	-1.215062	28.439890	-15.174224	-28.362790	-32.749854	8.659837	10.224136	0.000000	28.974781	-19.229330	-24.606026	-32.306271	7.755461	11.891559	0.000000	-1.279983	0.935254	3.043968
2.625000	10.708612	1.484322	-180.112353	0.249217	0.830251	-1.215012	27.987294	-14.914091	-28.409141	-31.926264	8.313467	10.136703	0.000000	28.551608	-19.099438	-24.709349	-31.578822	7.450253	11.822959	0.000000	-1.184478	0.987206	2.944853
2.630000	10.722988	1.485452	-180.132206	0.248575	0.831601	-1.214819	27.611587	-14.729082	-28.478950	-31.172380	7.954294	10.079393	0.000000	28.159172	-18.917700	-24.820911	-30.865741	7.140858	11.707662	0.000000	-1.059882	0.995124	2.972614
2.635000	10.705063	1.543809	-180.143217	0.247923	0.832966	-1.214730	27.198119	-14.487308	-28.611663	-30.434763	7.614644	9.970753	0.000000	27.751154	-18.809600	-24.921831	-30.160541	6.819701	11.605553	0.000000	-0.970032	1.055841	2.949065
2.640000	10.757906	1.579020	-180.165366	0.247336	0.834143	-1.214563	26.889455	-14.289941	-28.741159	-29.744377	7.280833	9.948074	0.000000	27.424969	-18.683061	-25.055993	-29.475915	6.503378	11.533120	0.000000	-0.804374	1.095566	2.941267
2.645000	10.741449	1.626910	-180.157850	0.246749	0.835385	-1.214510	26.465523	-14.035569	-28.721391	-28.961750	6.970529	9.859430	0.000000	27.044476	-18.555342	-25.111462	-28.796249	6.247589	11.414988	0.000000	-0.716589	1.136779	2.902786
2.650000	10.706032	1.622957	-180.134742	0.246066	0.836506	-1.214436	26.033324	-13.876197	-28.812913	-28.236267	6.674392	9.855688	0.000000	26.645890	-18.393573	-25.233015	-28.158771	5.999421	11.377637	0.000000	-0.639760	1.120470	2.822919
2.655000	10.641327	1.538065	-180.009708	0.245398	0.837670	-1.213953	25.581693	-13.893886	-29.060328	-27.586118	6.353354	9.848695	0.000000	26.236125	-18.076350	-25.295482	-27.498848	5.705703	11.323716	0.000000	-0.599765	1.048127	2.654297
2.660000	10.610077	1.585477	-179.989942	0.244771	0.838819	-1.213732	25.299684	-13.794581	-29.822077	-27.231089	5.793610	9.426250	0.000000	25.859153	-17.936854	-25.316481	-26.851060	5.451945	11.185240	0.000000	-0.529823	1.109032	2.600817
2.665000	10.640613	1.625533	-180.033135	0.244044	0.839652	-1.213564	24.955973	-13.577521	-29.722076	-26.510117	5.670846	9.601757	0.000000	25.547261	-17.851696	-25.457434	-26.283011	5.213852	11.097409	0.000000	-0.363929	1.166750	2.609318
2.670000	10.701594	1.666015	-180.060133	0.243517	0.840468	-1.213448	24.713345	-13.399866	-29.848828	-25.926611	5.426694	9.609298	0.000000	25.294693	-17.755149	-25.531320	-25.714181	4.981093	11.026439	0.000000	-0.196112	1.221624	2.579001
2.675000	10.651909	1.688285	-179.994383	0.243020	0.841328	-1.213434	24.338171	-13.247279	-30.084360	-25.327747	5.183928	9.458730	0.000000	24.972029	-17.615841	-25.507938	-25.167953	4.758141	10.915944	0.000000	-0.160510	1.220817	2.471385
2.680000	10.716726	1.715222	-179.977570	0.242551	0.841988	-1.213366	24.110662	-13.097514	-30.211356	-24.775617	4.918139	9.462926	0.000000	24.772809	-17.507156	-25.554575	-24.659372	4.536932	10.853313	0.000000	0.007550	1.233591	2.415652
2.685000	10.708051	1.741278	-179.955428	0.241981	0.842672	-1.213283	23.808912	-12.950982	-30.332802	-24.241030	4.695534	9.442598	0.000000	24.496162	-17.403779	-25.607772	-24.168819	4.359318	10.800005	0.000000	0.094862	1.257078	2.355342
2.690000	10.736872	1.783186	-179.945717	0.241461	0.843276	-1.213194	23.566282	-12.790740	-30.462111	-23.736053	4.495423	9.426945	0.000000	24.266538	-17.320496	-25.658609	-23.687445	4.171642	10.734204	0.000000	0.235767	1.295555	2.319635
2.695000	10.778666	1.816566	-179.951420	0.240966	0.843812	-1.213098	23.358736	-12.644714	-30.573202	-23.268276	4.304298	9.426211	0.000000	24.058824	-17.244054	-25.730043	-23.228122	3.986677	10.662632	0.000000	0.373131	1.332396	2.282842
2.700000	10.796066	1.845876	-179.950836	0.240468	0.844319	-1.212983	23.125619	-12.515486	-30.719043	-22.812052	4.121037	9.451191	0.000000	23.827683	-17.159788	-25.796410	-22.778663	3.836421	10.618141	0.000000	0.489369	1.356815	2.256359
2.705000	10.810007	1.847910	-179.935666	0.239992	0.844801	-1.212857	22.890690	-12.416856	-30.836648	-22.352449	3.935888	9.474787	0.000000	23.605476	-17.047606	-25.861030	-22.356073	3.688173	10.590139	0.000000	0.606360	1.364374	2.203540
2.710000	10.863493	1.859832	-179.933585	0.239577	0.845163	-1.212765	22.723774	-12.302754	-30.905375	-21.927706	3.779846	9.517350	0.000000	23.435181	-16.957594	-25.926823	-21.944225	3.542479	10.605537	0.000000	0.755313	1.384091	2.182298
2.715000	10.851691	1.881765	-179.918944	0.239088	0.845615	-1.212663	22.482962	-12.198147	-31.062124	-21.519083	3.615601	9.534093	0.000000	23.195728	-16.886231	-26.055507	-21.536675	3.404126	10.597993	0.000000	0.831617	1.398419	2.146887
2.720000	10.904205	1.903910	-179.922431	0.238620	0.845955	-1.212562	22.333865	-12.088627	-31.156745	-21.145134	3.478631	9.574046	0.000000	23.027952	-16.817893	-26.148783	-21.140500	3.253721	10.622053	0.000000	0.979776	1.423016	2.109978
2.725000	10.932695	1.929649	-179.943704	0.238190	0.846324	-1.212494	22.165757	-11.978113	-31.285651	-20.771619	3.318984	9.619410	0.000000	22.834227	-16.765327	-26.285560	-20.774890	3.113788	10.632117	0.000000	1.093033	1.448179	2.100510
2.730000	10.884173	1.963246	-179.927104	0.237682	0.846715	-1.212430	21.894681	-11.868138	-31.445520	-20.395631	3.188179	9.664930	0.000000	22.564013	-16.721919	-26.440308	-20.380477	3.011653	10.708730	0.000000	1.136323	1.481730	2.078343
2.735000	10.892756	1.952385	-179.898128	0.237270	0.847022	-1.212346	21.698942	-11.809394	-31.560428	-20.030865	3.054630	9.732848	0.000000	22.374369	-16.632240	-26.592285	-20.031580	2.924084	10.838934	0.000000	1.229110	1.455758	2.039328
2.740000	10.900417	1.946667	-179.872851	0.236847	0.847301	-1.212281	21.512846	-11.751187	-31.679249	-19.689809	2.939525	9.822016	0.000000	22.185876	-16.553921	-26.752867	-19.701863	2.827322	10.989088	0.000000	1.313116	1.434813	1.991157
2.745000	10.911847	1.980121	-179.885001	0.236392	0.847592	-1.212179	21.355243	-11.651738	-31.811111	-19.392515	2.817134	9.892542	0.000000	21.990155	-16.526114	-26.945227	-19.355185	2.707125	11.115862	0.000000	1.408118	1.478553	1.979589
2.750000	10.928816	1.981900	-179.897854	0.235955	0.847865	-1.212031	21.215886	-11.598199	-31.937455	-19.116205	2.717016	9.974657	0.000000	21.796214	-16.465437	-27.157790	-19.003397	2.574963	11.257718	0.000000	1.510391	1.487316	1.977098
2.755000	10.922615	1.987999	-179.894590	0.235495	0.848110	-1.211960	21.042813	-11.534697	-32.065076	-18.832041	2.624084	10.057694	0.000000	21.599193	-16.424306	-27.385139	-18.691447	2.459537	11.447989	0.000000	1.585846	1.480522	1.965263
2.760000	10.887829	1.983970	-179.873276	0.235013	0.848353	-1.211867	20.828221	-11.484730	-32.178852	-18.536858	2.562649	10.207441	0.000000	21.378738	-16.373322	-27.624677	-18.402047	2.444541	11.808739	0.000000	1.632207	1.468439	1.919921
2.765000	10.901258	1.976648	-179.852303	0.234614	0.848546	-1.211783	20.675814	-11.436142	-32.274856	-18.242378	2.418220	10.272576	0.000000	21.218713	-16.312396	-27.843169	-18.089874	2.330230	11.984356	0.000000	1.726599	1.450879	1.884994
2.770000	10.850533	1.970621	-179.821803	0.234110	0.848818	-1.211695	20.455359	-11.392802	-32.397615	-17.969671	2.338463	10.337728	0.000000	20.988447	-16.255576	-28.071946	-17.796254	2.254340	12.231625	0.000000	1.754505	1.427881	1.844717
